<?xml version="1.0" standalone="no"?>
<svg xmlns:xlink="http://www.w3.org/1999/xlink" id="wave" style="transform:rotate(0deg); transition: 0.3s" viewBox="0 0 1440 490" version="1.1" xmlns="http://www.w3.org/2000/svg"><defs><linearGradient id="sw-gradient-0" x1="0" x2="0" y1="1" y2="0"><stop stop-color="rgba(243, 106, 62, 1)" offset="0%"/><stop stop-color="rgba(255, 179, 11, 1)" offset="100%"/></linearGradient></defs><path style="transform:translate(0, 0px); opacity:1" fill="url(#sw-gradient-0)" d="M0,49L1440,392L2880,245L4320,343L5760,294L7200,245L8640,245L10080,392L11520,343L12960,294L14400,245L15840,245L17280,0L18720,196L20160,0L21600,0L23040,147L24480,0L25920,0L27360,0L28800,49L30240,49L31680,294L33120,98L34560,147L34560,490L33120,490L31680,490L30240,490L28800,490L27360,490L25920,490L24480,490L23040,490L21600,490L20160,490L18720,490L17280,490L15840,490L14400,490L12960,490L11520,490L10080,490L8640,490L7200,490L5760,490L4320,490L2880,490L1440,490L0,490Z"/><defs><linearGradient id="sw-gradient-1" x1="0" x2="0" y1="1" y2="0"><stop stop-color="rgba(243, 106, 62, 1)" offset="0%"/><stop stop-color="rgba(255, 179, 11, 1)" offset="100%"/></linearGradient></defs><path style="transform:translate(0, 50px); opacity:0.9" fill="url(#sw-gradient-1)" d="M0,441L1440,294L2880,441L4320,392L5760,245L7200,441L8640,196L10080,441L11520,0L12960,147L14400,441L15840,343L17280,294L18720,392L20160,245L21600,343L23040,392L24480,392L25920,343L27360,245L28800,98L30240,0L31680,441L33120,392L34560,0L34560,490L33120,490L31680,490L30240,490L28800,490L27360,490L25920,490L24480,490L23040,490L21600,490L20160,490L18720,490L17280,490L15840,490L14400,490L12960,490L11520,490L10080,490L8640,490L7200,490L5760,490L4320,490L2880,490L1440,490L0,490Z"/><defs><linearGradient id="sw-gradient-2" x1="0" x2="0" y1="1" y2="0"><stop stop-color="rgba(243, 106, 62, 1)" offset="0%"/><stop stop-color="rgba(255, 179, 11, 1)" offset="100%"/></linearGradient></defs><path style="transform:translate(0, 100px); opacity:0.8" fill="url(#sw-gradient-2)" d="M0,147L1440,0L2880,0L4320,196L5760,49L7200,392L8640,0L10080,98L11520,49L12960,245L14400,343L15840,441L17280,343L18720,49L20160,294L21600,245L23040,294L24480,196L25920,392L27360,392L28800,49L30240,245L31680,294L33120,294L34560,49L34560,490L33120,490L31680,490L30240,490L28800,490L27360,490L25920,490L24480,490L23040,490L21600,490L20160,490L18720,490L17280,490L15840,490L14400,490L12960,490L11520,490L10080,490L8640,490L7200,490L5760,490L4320,490L2880,490L1440,490L0,490Z"/></svg>